<svg width="512" height="512" viewBox="0 0 512 512" fill="none" xmlns="http://www.w3.org/2000/svg">
  <rect width="512" height="512" rx="128" fill="#4F46E5"/>
  <path d="M144 256C144 194.752 194.752 144 256 144C317.248 144 368 194.752 368 256C368 317.248 317.248 368 256 368C194.752 368 144 317.248 144 256ZM256 184C216.784 184 184 216.784 184 256C184 295.216 216.784 328 256 328C295.216 328 328 295.216 328 256C328 216.784 295.216 184 256 184Z" fill="white"/>
  <circle cx="256" cy="256" r="32" fill="white"/>
  <path d="M256 96L276.364 192H235.636L256 96Z" fill="white"/>
  <path d="M256 416L276.364 320H235.636L256 416Z" fill="white"/>
  <path d="M96 256L192 235.636V276.364L96 256Z" fill="white"/>
  <path d="M416 256L320 235.636V276.364L416 256Z" fill="white"/>
</svg>